<svg id="Layer_1" data-name="Layer 1" xmlns="http://www.w3.org/2000/svg" width="800" height="800" viewBox="0 0 800 800"><defs><style>.cls-1{fill:#2845ad;}.cls-2{fill:#5494f8;}.cls-3{fill:none;}</style></defs><title>terra-ico-logo-freelogovectors.net_</title><path class="cls-1" d="M275.13,76.93c38.89-16,81.21-21.18,122.94-22.52,62.79.77,127.06,8.85,184.39,35.85,45,20.76,82.45,55.11,112.11,94.26-9.29-6.77-14.57-17.82-22.89-25.74-15.22-14.46-28.84-31.86-48.94-39.84-19.83-6.79-41.09-8.5-61.93-7.53-52.14,3.7-102.91,17.71-152,35.24-53.92,21.21-108.14,47.21-148.31,90.11-8,8-12.68,18.61-20.55,26.67-18.39-12.5-36.29-27.4-47.18-47.13-.53-1-1.55-3.13-2.05-4.18,33.75-15.82,66.68-35.16,92.55-62.4,13.39-14.48,25.85-34.85,19-55.13C298.19,83,284.81,81.52,275.13,76.93M419.51,482.8C470,501.43,521,518.62,572.7,533.53c45.29,12.3,91.58,24.32,138.84,24a240.63,240.63,0,0,1-17.34,34.38A538.15,538.15,0,0,0,575.51,646.7c-22.75,14.91-46,31.54-59.38,55.84-5.36,9.45-5.46,20.68-2.63,30.92-.58.68-1.76,2-2.33,2.7-16.22,4.25-33.12,13.2-50,6.74-28.29-9.08-51.59-29.1-71.14-50.83-23.8-28.18-43.3-62.48-45.66-100C343.7,556.8,365.71,526,391.48,504c8.84-7.72,18.47-14.41,28-21.18Z" transform="translate(0)"/><path class="cls-2" d="M243.74,79c10.32-2.54,20.94-1.1,31.39-2,9.68,4.59,23.06,6.11,27.21,17.66,6.82,20.28-5.64,40.65-19,55.13-25.87,27.24-58.8,46.58-92.55,62.4.5,1,1.52,3.15,2.05,4.18-3.88-2.73-8.66-1.16-12.57.57a442.42,442.42,0,0,1-80,26.95c-10.55,2.23-21.31,4.46-32.17,3.28,0-6.29,4.38-11.28,7-16.69A371.32,371.32,0,0,1,180.45,110.57C199.63,96.85,219.76,82.39,243.74,79m165.11,67.7c49-17.53,99.82-31.54,152-35.24,20.84-1,42.1.74,61.93,7.53,20.1,8,33.72,25.38,48.94,39.84,8.32,7.92,13.6,19,22.89,25.74,4.82,2.41,6.5,8.37,9.89,12.36,69.38,98.22,85.89,231.21,42.9,343.52-4.25,15-23,15.61-35.82,17.11-47.26.34-93.55-11.68-138.84-24C521,518.62,470,501.43,419.51,482.8c-47.68-18.76-94.13-42.12-134.07-74.5-25-21.36-48.18-48.2-54.55-81.42-4.15-17.27-1.61-35.51,4.93-51.8,1.57-3.81,4.22-7.35,4.17-11.65,7.87-8.06,12.52-18.69,20.55-26.67,40.17-42.9,94.39-68.9,148.31-90.11M51.45,282.53l2,.81c15,18.32,30.25,36.48,45.42,54.64,31.83,36.37,59,76.44,84.52,117.4,35.66,55,67.73,115.25,74.18,181.54.63,35.68.79,71.71-5,107.06-10.29,2.6-20.47-4-29.74-8C154.1,699,98,639.36,64.57,568.82,22.35,480.2,17.44,374.61,51.45,282.53M694.2,591.89c9.13-2.37,18.24-6,27.84-5.59,2.62,6.64-2.39,12.17-5.48,17.58-30.16,48.81-71.43,90.84-120.35,120.89-16.37,10.26-33.87,21.73-54,20.73-9.63.74-18.92-3.41-26-9.73-1.23.1-3.75.28-5,.39.57-.68,1.75-2,2.33-2.7-2.83-10.24-2.73-21.47,2.63-30.92,13.43-24.3,36.63-40.93,59.38-55.84A538.15,538.15,0,0,1,694.2,591.89Z" transform="translate(0)"/><rect class="cls-3" width="800" height="800"/></svg>